# xmcd
#
# Track frame offsets: 
#        150
#        18822
#        43200
#
# Disc length: 876 seconds
#
# Revision: 0
# Processed by: cddbd v1.5PL3 Copyright (c) Steve Scherf et al.
# Submitted via: ExactAudioCopy v0.95a3
#
DISCID=1b036a03
DTITLE=Face to Ace - Missing Word
DYEAR=2001
DGENRE=JPop
TTITLE0=Missing Word
TTITLE1=Blind Flight
TTITLE2=Angel Smile
EXTD=
EXTT0=
EXTT1=
EXTT2=
PLAYORDER=
